<mxfile host="app.diagrams.net" modified="2021-09-23T14:41:45.704Z" agent="5.0 (Windows NT 10.0; Win64; x64) AppleWebKit/537.36 (KHTML, like Gecko) Chrome/93.0.4577.82 Safari/537.36" etag="KuOwHU7rmY-HeiaIW_rh" version="15.1.1" type="github">
  <diagram id="OLg3k7qQ1mwffB3n88P1" name="Page-1">
    <mxGraphModel dx="1502" dy="616" grid="1" gridSize="10" guides="1" tooltips="1" connect="1" arrows="1" fold="1" page="1" pageScale="1" pageWidth="827" pageHeight="1169" math="0" shadow="0">
      <root>
        <mxCell id="0" />
        <mxCell id="1" parent="0" />
        <mxCell id="J82eLZdDQa7ar-HPgZSt-2" style="edgeStyle=orthogonalEdgeStyle;rounded=0;orthogonalLoop=1;jettySize=auto;html=1;exitX=0.5;exitY=1;exitDx=0;exitDy=0;" edge="1" parent="1" source="J82eLZdDQa7ar-HPgZSt-1">
          <mxGeometry relative="1" as="geometry">
            <mxPoint x="414.66666666666674" y="110" as="targetPoint" />
          </mxGeometry>
        </mxCell>
        <mxCell id="J82eLZdDQa7ar-HPgZSt-1" value="Start" style="ellipse;whiteSpace=wrap;html=1;" vertex="1" parent="1">
          <mxGeometry x="354" y="10" width="120" height="60" as="geometry" />
        </mxCell>
        <mxCell id="J82eLZdDQa7ar-HPgZSt-4" style="edgeStyle=orthogonalEdgeStyle;rounded=0;orthogonalLoop=1;jettySize=auto;html=1;exitX=0.5;exitY=1;exitDx=0;exitDy=0;" edge="1" parent="1" source="J82eLZdDQa7ar-HPgZSt-3">
          <mxGeometry relative="1" as="geometry">
            <mxPoint x="414.66666666666674" y="210" as="targetPoint" />
          </mxGeometry>
        </mxCell>
        <mxCell id="J82eLZdDQa7ar-HPgZSt-3" value="input = input 4 digit num" style="whiteSpace=wrap;html=1;" vertex="1" parent="1">
          <mxGeometry x="347" y="110" width="134" height="60" as="geometry" />
        </mxCell>
        <mxCell id="J82eLZdDQa7ar-HPgZSt-7" style="edgeStyle=orthogonalEdgeStyle;rounded=0;orthogonalLoop=1;jettySize=auto;html=1;exitX=0.5;exitY=1;exitDx=0;exitDy=0;entryX=0.5;entryY=0;entryDx=0;entryDy=0;" edge="1" parent="1" source="J82eLZdDQa7ar-HPgZSt-5" target="J82eLZdDQa7ar-HPgZSt-6">
          <mxGeometry relative="1" as="geometry" />
        </mxCell>
        <mxCell id="J82eLZdDQa7ar-HPgZSt-5" value="Split the 4 digits" style="whiteSpace=wrap;html=1;" vertex="1" parent="1">
          <mxGeometry x="347" y="530" width="134" height="60" as="geometry" />
        </mxCell>
        <mxCell id="J82eLZdDQa7ar-HPgZSt-28" style="edgeStyle=orthogonalEdgeStyle;rounded=0;orthogonalLoop=1;jettySize=auto;html=1;exitX=0.5;exitY=1;exitDx=0;exitDy=0;entryX=0.5;entryY=0;entryDx=0;entryDy=0;" edge="1" parent="1" source="J82eLZdDQa7ar-HPgZSt-6" target="J82eLZdDQa7ar-HPgZSt-24">
          <mxGeometry relative="1" as="geometry" />
        </mxCell>
        <mxCell id="J82eLZdDQa7ar-HPgZSt-29" style="edgeStyle=orthogonalEdgeStyle;rounded=0;orthogonalLoop=1;jettySize=auto;html=1;exitX=0.5;exitY=1;exitDx=0;exitDy=0;entryX=0.5;entryY=0;entryDx=0;entryDy=0;" edge="1" parent="1" source="J82eLZdDQa7ar-HPgZSt-6" target="J82eLZdDQa7ar-HPgZSt-25">
          <mxGeometry relative="1" as="geometry" />
        </mxCell>
        <mxCell id="J82eLZdDQa7ar-HPgZSt-30" style="edgeStyle=orthogonalEdgeStyle;rounded=0;orthogonalLoop=1;jettySize=auto;html=1;exitX=0.5;exitY=1;exitDx=0;exitDy=0;entryX=0.5;entryY=0;entryDx=0;entryDy=0;" edge="1" parent="1" source="J82eLZdDQa7ar-HPgZSt-6" target="J82eLZdDQa7ar-HPgZSt-26">
          <mxGeometry relative="1" as="geometry" />
        </mxCell>
        <mxCell id="J82eLZdDQa7ar-HPgZSt-31" style="edgeStyle=orthogonalEdgeStyle;rounded=0;orthogonalLoop=1;jettySize=auto;html=1;exitX=0.5;exitY=1;exitDx=0;exitDy=0;entryX=0.5;entryY=0;entryDx=0;entryDy=0;" edge="1" parent="1" source="J82eLZdDQa7ar-HPgZSt-6" target="J82eLZdDQa7ar-HPgZSt-27">
          <mxGeometry relative="1" as="geometry" />
        </mxCell>
        <mxCell id="J82eLZdDQa7ar-HPgZSt-6" value="&lt;span style=&quot;color: rgb(0 , 0 , 0) ; font-family: &amp;#34;helvetica&amp;#34; ; font-size: 12px ; font-style: normal ; font-weight: 400 ; letter-spacing: normal ; text-align: center ; text-indent: 0px ; text-transform: none ; word-spacing: 0px ; background-color: rgb(248 , 249 , 250) ; display: inline ; float: none&quot;&gt;add the 4 digits to a list of int[] (numbers)&lt;/span&gt;" style="whiteSpace=wrap;html=1;" vertex="1" parent="1">
          <mxGeometry x="354" y="600" width="120" height="60" as="geometry" />
        </mxCell>
        <mxCell id="J82eLZdDQa7ar-HPgZSt-10" style="edgeStyle=orthogonalEdgeStyle;rounded=0;orthogonalLoop=1;jettySize=auto;html=1;exitX=0;exitY=0.5;exitDx=0;exitDy=0;" edge="1" parent="1" source="J82eLZdDQa7ar-HPgZSt-9">
          <mxGeometry relative="1" as="geometry">
            <mxPoint x="210" y="300" as="targetPoint" />
          </mxGeometry>
        </mxCell>
        <mxCell id="J82eLZdDQa7ar-HPgZSt-17" value="" style="edgeStyle=orthogonalEdgeStyle;rounded=0;orthogonalLoop=1;jettySize=auto;html=1;" edge="1" parent="1" source="J82eLZdDQa7ar-HPgZSt-9" target="J82eLZdDQa7ar-HPgZSt-16">
          <mxGeometry relative="1" as="geometry" />
        </mxCell>
        <mxCell id="J82eLZdDQa7ar-HPgZSt-9" value="If input is not an INT" style="rhombus;whiteSpace=wrap;html=1;" vertex="1" parent="1">
          <mxGeometry x="337" y="210" width="154" height="80" as="geometry" />
        </mxCell>
        <mxCell id="J82eLZdDQa7ar-HPgZSt-13" style="edgeStyle=orthogonalEdgeStyle;rounded=0;orthogonalLoop=1;jettySize=auto;html=1;exitX=0.5;exitY=1;exitDx=0;exitDy=0;entryX=0;entryY=0.5;entryDx=0;entryDy=0;" edge="1" parent="1" source="J82eLZdDQa7ar-HPgZSt-11" target="J82eLZdDQa7ar-HPgZSt-12">
          <mxGeometry relative="1" as="geometry">
            <mxPoint x="209.5" y="1120" as="targetPoint" />
            <Array as="points">
              <mxPoint x="210" y="610" />
              <mxPoint x="50" y="610" />
              <mxPoint x="50" y="1210" />
            </Array>
          </mxGeometry>
        </mxCell>
        <mxCell id="J82eLZdDQa7ar-HPgZSt-11" value="print &quot;Cannot find a valid 4 digit number&quot;" style="whiteSpace=wrap;html=1;" vertex="1" parent="1">
          <mxGeometry x="150" y="300" width="120" height="60" as="geometry" />
        </mxCell>
        <mxCell id="J82eLZdDQa7ar-HPgZSt-12" value="End" style="ellipse;whiteSpace=wrap;html=1;" vertex="1" parent="1">
          <mxGeometry x="354" y="1180" width="120" height="60" as="geometry" />
        </mxCell>
        <mxCell id="J82eLZdDQa7ar-HPgZSt-14" value="yes" style="text;html=1;align=center;verticalAlign=middle;resizable=0;points=[];autosize=1;strokeColor=none;fillColor=none;" vertex="1" parent="1">
          <mxGeometry x="275" y="230" width="30" height="20" as="geometry" />
        </mxCell>
        <mxCell id="J82eLZdDQa7ar-HPgZSt-15" value="no" style="text;html=1;align=center;verticalAlign=middle;resizable=0;points=[];autosize=1;strokeColor=none;fillColor=none;" vertex="1" parent="1">
          <mxGeometry x="420" y="300" width="30" height="20" as="geometry" />
        </mxCell>
        <mxCell id="J82eLZdDQa7ar-HPgZSt-18" style="edgeStyle=orthogonalEdgeStyle;rounded=0;orthogonalLoop=1;jettySize=auto;html=1;exitX=0;exitY=0.5;exitDx=0;exitDy=0;entryX=1;entryY=0.5;entryDx=0;entryDy=0;" edge="1" parent="1" source="J82eLZdDQa7ar-HPgZSt-16" target="J82eLZdDQa7ar-HPgZSt-11">
          <mxGeometry relative="1" as="geometry" />
        </mxCell>
        <mxCell id="J82eLZdDQa7ar-HPgZSt-21" style="edgeStyle=orthogonalEdgeStyle;rounded=0;orthogonalLoop=1;jettySize=auto;html=1;exitX=0.5;exitY=1;exitDx=0;exitDy=0;" edge="1" parent="1" source="J82eLZdDQa7ar-HPgZSt-16">
          <mxGeometry relative="1" as="geometry">
            <mxPoint x="414" y="450" as="targetPoint" />
          </mxGeometry>
        </mxCell>
        <mxCell id="J82eLZdDQa7ar-HPgZSt-16" value="If input is more&amp;nbsp;&lt;br&gt;than 4 digits" style="rhombus;whiteSpace=wrap;html=1;" vertex="1" parent="1">
          <mxGeometry x="337" y="340" width="154" height="80" as="geometry" />
        </mxCell>
        <mxCell id="J82eLZdDQa7ar-HPgZSt-19" value="yes" style="text;html=1;align=center;verticalAlign=middle;resizable=0;points=[];autosize=1;strokeColor=none;fillColor=none;" vertex="1" parent="1">
          <mxGeometry x="307" y="340" width="30" height="20" as="geometry" />
        </mxCell>
        <mxCell id="J82eLZdDQa7ar-HPgZSt-23" style="edgeStyle=orthogonalEdgeStyle;rounded=0;orthogonalLoop=1;jettySize=auto;html=1;exitX=0.5;exitY=1;exitDx=0;exitDy=0;entryX=0.5;entryY=0;entryDx=0;entryDy=0;" edge="1" parent="1" source="J82eLZdDQa7ar-HPgZSt-22" target="J82eLZdDQa7ar-HPgZSt-5">
          <mxGeometry relative="1" as="geometry" />
        </mxCell>
        <mxCell id="J82eLZdDQa7ar-HPgZSt-22" value="print the original number" style="whiteSpace=wrap;html=1;" vertex="1" parent="1">
          <mxGeometry x="354" y="450" width="120" height="60" as="geometry" />
        </mxCell>
        <mxCell id="J82eLZdDQa7ar-HPgZSt-48" style="edgeStyle=orthogonalEdgeStyle;rounded=0;orthogonalLoop=1;jettySize=auto;html=1;exitX=0.5;exitY=1;exitDx=0;exitDy=0;entryX=0.5;entryY=0;entryDx=0;entryDy=0;" edge="1" parent="1" source="J82eLZdDQa7ar-HPgZSt-24" target="J82eLZdDQa7ar-HPgZSt-32">
          <mxGeometry relative="1" as="geometry" />
        </mxCell>
        <mxCell id="J82eLZdDQa7ar-HPgZSt-24" value="firstnum = numbers[3]" style="whiteSpace=wrap;html=1;" vertex="1" parent="1">
          <mxGeometry x="100" y="740" width="120" height="60" as="geometry" />
        </mxCell>
        <mxCell id="J82eLZdDQa7ar-HPgZSt-49" style="edgeStyle=orthogonalEdgeStyle;rounded=0;orthogonalLoop=1;jettySize=auto;html=1;exitX=0.5;exitY=1;exitDx=0;exitDy=0;entryX=0.5;entryY=0;entryDx=0;entryDy=0;" edge="1" parent="1" source="J82eLZdDQa7ar-HPgZSt-25" target="J82eLZdDQa7ar-HPgZSt-33">
          <mxGeometry relative="1" as="geometry" />
        </mxCell>
        <mxCell id="J82eLZdDQa7ar-HPgZSt-25" value="secondnum = numbers[1]" style="whiteSpace=wrap;html=1;" vertex="1" parent="1">
          <mxGeometry x="275" y="740" width="120" height="60" as="geometry" />
        </mxCell>
        <mxCell id="J82eLZdDQa7ar-HPgZSt-50" style="edgeStyle=orthogonalEdgeStyle;rounded=0;orthogonalLoop=1;jettySize=auto;html=1;exitX=0.5;exitY=1;exitDx=0;exitDy=0;entryX=0.5;entryY=0;entryDx=0;entryDy=0;" edge="1" parent="1" source="J82eLZdDQa7ar-HPgZSt-26" target="J82eLZdDQa7ar-HPgZSt-34">
          <mxGeometry relative="1" as="geometry" />
        </mxCell>
        <mxCell id="J82eLZdDQa7ar-HPgZSt-26" value="thirdnum = numbers[2]" style="whiteSpace=wrap;html=1;" vertex="1" parent="1">
          <mxGeometry x="440" y="740" width="120" height="60" as="geometry" />
        </mxCell>
        <mxCell id="J82eLZdDQa7ar-HPgZSt-51" style="edgeStyle=orthogonalEdgeStyle;rounded=0;orthogonalLoop=1;jettySize=auto;html=1;exitX=0.5;exitY=1;exitDx=0;exitDy=0;entryX=0.5;entryY=0;entryDx=0;entryDy=0;" edge="1" parent="1" source="J82eLZdDQa7ar-HPgZSt-27" target="J82eLZdDQa7ar-HPgZSt-35">
          <mxGeometry relative="1" as="geometry" />
        </mxCell>
        <mxCell id="J82eLZdDQa7ar-HPgZSt-27" value="fourthnum = numbers[0]" style="whiteSpace=wrap;html=1;" vertex="1" parent="1">
          <mxGeometry x="610" y="740" width="120" height="60" as="geometry" />
        </mxCell>
        <mxCell id="J82eLZdDQa7ar-HPgZSt-38" style="edgeStyle=orthogonalEdgeStyle;rounded=0;orthogonalLoop=1;jettySize=auto;html=1;exitX=0.5;exitY=1;exitDx=0;exitDy=0;entryX=0.5;entryY=0;entryDx=0;entryDy=0;" edge="1" parent="1" source="J82eLZdDQa7ar-HPgZSt-32" target="J82eLZdDQa7ar-HPgZSt-37">
          <mxGeometry relative="1" as="geometry" />
        </mxCell>
        <mxCell id="J82eLZdDQa7ar-HPgZSt-32" value="(firstnum + 6) %10" style="whiteSpace=wrap;html=1;" vertex="1" parent="1">
          <mxGeometry x="100" y="830" width="120" height="60" as="geometry" />
        </mxCell>
        <mxCell id="J82eLZdDQa7ar-HPgZSt-39" style="edgeStyle=orthogonalEdgeStyle;rounded=0;orthogonalLoop=1;jettySize=auto;html=1;exitX=0.5;exitY=1;exitDx=0;exitDy=0;entryX=0.5;entryY=0;entryDx=0;entryDy=0;" edge="1" parent="1" source="J82eLZdDQa7ar-HPgZSt-33" target="J82eLZdDQa7ar-HPgZSt-37">
          <mxGeometry relative="1" as="geometry" />
        </mxCell>
        <mxCell id="J82eLZdDQa7ar-HPgZSt-33" value="(secondnum + 6) %10" style="whiteSpace=wrap;html=1;" vertex="1" parent="1">
          <mxGeometry x="275" y="830" width="120" height="60" as="geometry" />
        </mxCell>
        <mxCell id="J82eLZdDQa7ar-HPgZSt-40" style="edgeStyle=orthogonalEdgeStyle;rounded=0;orthogonalLoop=1;jettySize=auto;html=1;exitX=0.5;exitY=1;exitDx=0;exitDy=0;entryX=0.5;entryY=0;entryDx=0;entryDy=0;" edge="1" parent="1" source="J82eLZdDQa7ar-HPgZSt-34" target="J82eLZdDQa7ar-HPgZSt-37">
          <mxGeometry relative="1" as="geometry" />
        </mxCell>
        <mxCell id="J82eLZdDQa7ar-HPgZSt-34" value="(thirdnum + 6) % 10" style="whiteSpace=wrap;html=1;" vertex="1" parent="1">
          <mxGeometry x="440" y="830" width="120" height="60" as="geometry" />
        </mxCell>
        <mxCell id="J82eLZdDQa7ar-HPgZSt-41" style="edgeStyle=orthogonalEdgeStyle;rounded=0;orthogonalLoop=1;jettySize=auto;html=1;exitX=0.5;exitY=1;exitDx=0;exitDy=0;entryX=0.5;entryY=0;entryDx=0;entryDy=0;" edge="1" parent="1" source="J82eLZdDQa7ar-HPgZSt-35" target="J82eLZdDQa7ar-HPgZSt-37">
          <mxGeometry relative="1" as="geometry" />
        </mxCell>
        <mxCell id="J82eLZdDQa7ar-HPgZSt-35" value="(fourthnum + 6) % 10" style="whiteSpace=wrap;html=1;" vertex="1" parent="1">
          <mxGeometry x="610" y="830" width="120" height="60" as="geometry" />
        </mxCell>
        <mxCell id="J82eLZdDQa7ar-HPgZSt-43" style="edgeStyle=orthogonalEdgeStyle;rounded=0;orthogonalLoop=1;jettySize=auto;html=1;exitX=0.5;exitY=1;exitDx=0;exitDy=0;entryX=0.5;entryY=0;entryDx=0;entryDy=0;" edge="1" parent="1" source="J82eLZdDQa7ar-HPgZSt-37" target="J82eLZdDQa7ar-HPgZSt-42">
          <mxGeometry relative="1" as="geometry" />
        </mxCell>
        <mxCell id="J82eLZdDQa7ar-HPgZSt-37" value="Create a string that will be the final number and concatinate all the numbers to it" style="whiteSpace=wrap;html=1;" vertex="1" parent="1">
          <mxGeometry x="284" y="950" width="260" height="60" as="geometry" />
        </mxCell>
        <mxCell id="J82eLZdDQa7ar-HPgZSt-46" style="edgeStyle=orthogonalEdgeStyle;rounded=0;orthogonalLoop=1;jettySize=auto;html=1;exitX=0.5;exitY=1;exitDx=0;exitDy=0;entryX=0.5;entryY=0;entryDx=0;entryDy=0;" edge="1" parent="1" source="J82eLZdDQa7ar-HPgZSt-42" target="J82eLZdDQa7ar-HPgZSt-44">
          <mxGeometry relative="1" as="geometry" />
        </mxCell>
        <mxCell id="J82eLZdDQa7ar-HPgZSt-42" value="convert the string into an int" style="whiteSpace=wrap;html=1;" vertex="1" parent="1">
          <mxGeometry x="354" y="1030" width="120" height="60" as="geometry" />
        </mxCell>
        <mxCell id="J82eLZdDQa7ar-HPgZSt-45" style="edgeStyle=orthogonalEdgeStyle;rounded=0;orthogonalLoop=1;jettySize=auto;html=1;exitX=0.5;exitY=1;exitDx=0;exitDy=0;entryX=0.5;entryY=0;entryDx=0;entryDy=0;" edge="1" parent="1" source="J82eLZdDQa7ar-HPgZSt-44" target="J82eLZdDQa7ar-HPgZSt-12">
          <mxGeometry relative="1" as="geometry" />
        </mxCell>
        <mxCell id="J82eLZdDQa7ar-HPgZSt-44" value="print the final encrpyted number" style="whiteSpace=wrap;html=1;" vertex="1" parent="1">
          <mxGeometry x="354" y="1109" width="120" height="60" as="geometry" />
        </mxCell>
        <mxCell id="J82eLZdDQa7ar-HPgZSt-47" value="no" style="text;html=1;align=center;verticalAlign=middle;resizable=0;points=[];autosize=1;strokeColor=none;fillColor=none;" vertex="1" parent="1">
          <mxGeometry x="420" y="420" width="30" height="20" as="geometry" />
        </mxCell>
      </root>
    </mxGraphModel>
  </diagram>
</mxfile>
